/* XPM */
static char *_573735134268[] = {
/* columns rows colors chars-per-pixel */
"18 62 2 1 ",
"  c #8E6D83",
". c None",
/* pixels */
"..................",
"......      ......",
"....          ....",
"...            ...",
"..              ..",
".                .",
".                .",
"                  ",
"                  ",
"                  ",
"                  ",
"                  ",
"                  ",
"                  ",
"                  ",
"                  ",
"                  ",
"                  ",
"                  ",
"                  ",
"                  ",
"                  ",
"                  ",
"                  ",
"                  ",
"                  ",
"                  ",
"                  ",
"                  ",
"                  ",
"                  ",
"                  ",
"                  ",
"                  ",
"                  ",
"                  ",
"                  ",
"                  ",
"                  ",
"                  ",
"                  ",
"                  ",
"                  ",
"                  ",
"                  ",
"                  ",
"                  ",
"                  ",
"                  ",
"                  ",
"                  ",
"                  ",
"                  ",
"                  ",
"                  ",
"                  ",
".                .",
".                .",
"..              ..",
"...            ...",
"....          ....",
"......      ......"
};
