/* XPM */
static char *_573988867650[] = {
/* columns rows colors chars-per-pixel */
"64 64 256 2 ",
"   c black",
".  c #1F170B",
"X  c #170F07",
"o  c #4B4B4B",
"O  c white",
"+  c #1B1B1B",
"@  c #131313",
"#  c #0B0B0B",
"$  c #070707",
"%  c #2F371F",
"&  c #232B0F",
"*  c #171F07",
"=  c #0F1700",
"-  c #4F3B2B",
";  c #473323",
":  c #3F2B1B",
">  c #FFB7B7",
",  c #F7ABAB",
"<  c #F3A3A3",
"1  c #EB9797",
"2  c #E78F8F",
"3  c #DF8787",
"4  c #DB7B7B",
"5  c #D37373",
"6  c #CB6B6B",
"7  c #C76363",
"8  c #BF5B5B",
"9  c #BB5757",
"0  c #B34F4F",
"q  c #AF4747",
"w  c #A73F3F",
"e  c #A33B3B",
"r  c #9B3333",
"t  c #972F2F",
"y  c #8F2B2B",
"u  c #8B2323",
"i  c #831F1F",
"p  c #7F1B1B",
"a  c #771717",
"s  c #731313",
"d  c #6B0F0F",
"f  c #670B0B",
"g  c #5F0707",
"h  c #5B0707",
"j  c #530707",
"k  c #4F0000",
"l  c #470000",
"z  c #430000",
"x  c #FFEBDF",
"c  c #FFE3D3",
"v  c #FFDBC7",
"b  c #FFD3BB",
"n  c #FFCFB3",
"m  c #FFC7A7",
"M  c #FFBF9B",
"N  c #FFBB93",
"B  c #FFB383",
"V  c #F7AB7B",
"C  c #EFA373",
"Z  c #E79B6B",
"A  c #DF9363",
"S  c #D78B5B",
"D  c #CF8353",
"F  c #CB7F4F",
"G  c #BF7B4B",
"H  c #B37347",
"J  c #AB6F43",
"K  c #A36B3F",
"L  c #9B633B",
"P  c #8F5F37",
"I  c #875733",
"U  c #7F532F",
"Y  c #774F2B",
"T  c #6B4727",
"R  c #5F4323",
"E  c #533F1F",
"W  c #4B371B",
"Q  c #3F2F17",
"!  c #332B13",
"~  c #2B230F",
"^  c #EFEFEF",
"/  c #E7E7E7",
"(  c #DFDFDF",
")  c gray86",
"_  c LightGray",
"`  c #CBCBCB",
"'  c gray78",
"]  c gray75",
"[  c #B7B7B7",
"{  c gray70",
"}  c gray67",
"|  c #A7A7A7",
" . c #9F9F9F",
".. c #979797",
"X. c #939393",
"o. c #8B8B8B",
"O. c #838383",
"+. c gray50",
"@. c #777777",
"#. c #6F6F6F",
"$. c gray42",
"%. c gray39",
"&. c #5B5B5B",
"*. c gray34",
"=. c gray31",
"-. c gray28",
";. c #434343",
":. c gray23",
">. c #373737",
",. c #2F2F2F",
"<. c #272727",
"1. c #232323",
"2. c #77FF6F",
"3. c #6FEF67",
"4. c #67DF5F",
"5. c #5FCF57",
"6. c #5BBF4F",
"7. c #53AF47",
"8. c #4B9F3F",
"9. c #439337",
"0. c #3F832F",
"q. c #37732B",
"w. c #2F6323",
"e. c #27531B",
"r. c #1F4317",
"t. c #17330F",
"y. c #13230B",
"u. c #0B1707",
"i. c #BFA78F",
"p. c #B79F87",
"a. c #AF977F",
"s. c #A78F77",
"d. c #9F876F",
"f. c #9B7F6B",
"g. c #937B63",
"h. c #8B735B",
"j. c #836B57",
"k. c #7B634F",
"l. c #775F4B",
"z. c #6F5743",
"x. c #67533F",
"c. c #5F4B37",
"v. c #574333",
"b. c #533F2F",
"n. c #9F8363",
"m. c #8F7753",
"M. c #836B4B",
"N. c #775F3F",
"B. c #675333",
"V. c #5B472B",
"C. c #4F3B23",
"Z. c #43331B",
"A. c #7B7F63",
"S. c #6F7357",
"D. c #676B4F",
"F. c #5B6347",
"G. c #53573B",
"H. c #474F33",
"J. c #3F472B",
"K. c #373F27",
"L. c #FFFF73",
"P. c #EBDB57",
"I. c #D7BB43",
"U. c #C39B2F",
"Y. c #AF7B1F",
"T. c #9B5B13",
"R. c #874307",
"E. c #732B00",
"W. c white",
"Q. c #FFDBDB",
"!. c #FFBBBB",
"~. c #FF9B9B",
"^. c #FF7B7B",
"/. c #FF5F5F",
"(. c #FF3F3F",
"). c #FF1F1F",
"_. c red",
"`. c #EF0000",
"'. c #E30000",
"]. c #D70000",
"[. c #CB0000",
"{. c #BF0000",
"}. c #B30000",
"|. c #A70000",
" X c #9B0000",
".X c #8B0000",
"XX c #7F0000",
"oX c #730000",
"OX c #670000",
"+X c #5B0000",
"@X c #4F0000",
"#X c #430000",
"$X c #E7E7FF",
"%X c #C7C7FF",
"&X c #ABABFF",
"*X c #8F8FFF",
"=X c #7373FF",
"-X c #5353FF",
";X c #3737FF",
":X c #1B1BFF",
">X c blue",
",X c #0000E3",
"<X c #0000CB",
"1X c #0000B3",
"2X c #00009B",
"3X c #000083",
"4X c #00006B",
"5X c #000053",
"6X c white",
"7X c #FFEBDB",
"8X c #FFD7BB",
"9X c #FFC79B",
"0X c #FFB37B",
"qX c #FFA35B",
"wX c #FF8F3B",
"eX c #FF7F1B",
"rX c #F37317",
"tX c #EB6F0F",
"yX c #DF670F",
"uX c #D75F0B",
"iX c #CB5707",
"pX c #C34F00",
"aX c #B74700",
"sX c #AF4300",
"dX c white",
"fX c #FFFFD7",
"gX c #FFFFB3",
"hX c #FFFF8F",
"jX c #FFFF6B",
"kX c #FFFF47",
"lX c #FFFF23",
"zX c yellow",
"xX c #A73F00",
"cX c #9F3700",
"vX c #932F00",
"bX c #872300",
"nX c #4F3B27",
"mX c #432F1B",
"MX c #372313",
"NX c #2F1B0B",
"BX c #000053",
"VX c #000047",
"CX c #00003B",
"ZX c #00002F",
"AX c #000023",
"SX c #000017",
"DX c #00000B",
"FX c cyan",
"GX c #FF9F43",
"HX c #FFE74B",
"JX c #FF7BFF",
"KX c magenta",
"LX c #CF00CF",
"PX c #9F009B",
"IX c #6F006B",
"UX c #A76B6B",
/* pixels */
"IXIXIX1.<.<.<.1.<.IXIX<.IX1.<.<.<.<.<.1.IXIXIXIXIXIXIX1.<.<.<.<.<.<.<.1.IXIXIXIXIXIX<.1.<.<.<.<.<.<.<.<.<.<.1.1.<.<.<.<.<.<.<.<.",
"Q IXIXIX1.1.1.<.IXIXIXIX<.<.1.<.<.1.1.IXIXIXW W W Q IX<.1.1.<.<.1.1.<.<.IXIXIXIXIXIXIXIX1.<.<.<.<.<.<.<.1.<.<.IXIXIXIXW W W W W ",
"W Q IXIXIXIX1.<.IXIX<.IXIXIX<.1.1.<.<.IXIXW W Q Q Q Q IX<.<.1.1.<.<.<.<.IXIXIXIXIXIXIXIX<.1.1.<.<.<.1.1.<.<.<.IXIXIXW W W W W W ",
"Q Q Q IXIXIX<.<.<.<.IXIX<.<.+ 1.<.<.<.IXIXW Q IXIXIXQ IX<.<.<.<.IXIXIX<.IXIXIXIXIXIXIX<.<.<.<.1.<.<.1.<.<.<.<.IXIXW W W W ! ! <.",
"IXQ ~ IXIXIXIX<.<.<.<.<.<.1.1.<.<.<.<.IXIXIXIX<.IXIXW IX<.<.Q Q Q IXIXIX<.IXIXIXIX<.Q Q W Q Q Q ! ! ! ~ <.<.<.IXIXW W W ! <.! IX",
"IXQ ! IXIXIXIXIXIXIXIXIXIXIXIXIXIXIX<.<.IXIXIXIXIXIX! IX<.Q W W W Q IXIX<.<.IX~ ! Q W W W W W Q Q Q ~ Q ! <.<.IXIXIXW Q ! IX! IX",
"IXIXQ IXIXIXIXIXIXIXIXIXW IXIXIXIXIXIX<.IXIXIXIXIXIX~ <.Q W W ! ! Q IXIX<.~ ! W W E W W W Q ! ! ~ ! ~ ~ Q ~ <.IXIXIXW Q ~ IX! IX",
"IXIXQ IXIXIXIXIXQ E IXW Q IXIXIXIXIXIXIX<.<.<.IXIX<.~ <.W Q ! <.<.! IX<.~ ! W E E E E E W ~ ! ~   ! <.<.Q ~ ~ <.IXIXW Q ~ IX! <.",
"IXIXQ IX<.IXIXQ E E W Q ! IX<.<.<.IXIXIX<.IXIX<.IXIXQ IXQ Q <.IXIX~ IXIX! W E E R R E E W ~   ~ <.! IXIX! <.~ <.<.IXQ ! ~ IX! <.",
"IXIXQ <.IXIXIXE E W Q Q ! IX<.IXIX<.<.<.<.IXIXIXIXIX! <.Q Q IXIXIX~ IX~ W ! ~ R R E E W Q ~ <.~ <.! IXIX! IX~ <.<.IXQ ! ~ IX! <.",
"<.IX! IXIXIXIXE W Q Q ! ~ IX<.IXIXQ Q Q ! ~ <.<.<.IX~ <.~ <.IXIXIX~ <.~ ! W IXR E W W Q ! ~ <.<.<.IXIX! ! IX~ ~ IX<.<.! ~ IX<.<.",
"<.<.~ IXIXIXIXE Q ! ! ~ ~ IXIXIXQ W W W W Q IXIX<.<.<.<.~ IXIX<.IX~ 1.~ ! ! IXR W W Q ! ! ! ~ IX<.IX! ! ! ! ~ ~ IXIX<.! ~ <.<.<.",
"<.<.~ IXIXIXIXIXQ ! ~ IX~ <.IX<.W W Q IXQ W IXIX<.<.1.1.~ <.<.<.<.1.1.<.! ~ IXW W Q ! <.IX! ! ~ IXIX! ~ ~ ! ~ ~ IXIX<.! ~ <.<.1.",
"<.<.~ IXIXIXW W W Q ~ <.~ <.<.Q W Q IXIXIXQ IXIX<.+   1.<.<.IXIXIXIX<.<.! ~ IXW Q ! <.IXIXIX! ~ Q W ~ ~ ~ IX~ ~ IXIXIX<.<.<.1.1.",
"<.<.<.IXIXW W Q IXIXIXIX~ 1.<.Q W Q IXIXIXQ IXIX<.1.1.<.<.<.IXIXIXIXIX<.~ ~ IXW <.! IXIXIXIXW Q W ! ~ IXIXIX~ ~ IXIXIX<.<.<.1.1.",
"<.<.<.IXIXW Q IXIXIXIXIX~ + <.Q W Q <.IXIX! IX<.1.<.~ ~ ~ IXIXIXIXIXIX1.~ <.IXW IX! <.~ ! W W W ! ~ IXIXIX<.IX~ ~ IXIX<.1.1.1.1.",
"<.<.<.IXIXW IXIXIXIXIXIX~   <.W IX! <.IX<.~ IX<.<.Q W W Q Q ~ IXIX<.1.1.~ <.IXW IX! ~ W W W W W W ! ~ IXIXIXIX~ ~ ~ IX<.1.1.1.1.",
"<.<.<.IXIXW IXIXIX<.<.  ~   <.W IX~ <.IX<.~ <.IXW R R R R W Q <.IXIX1.1.~ IXIXIXIX! W W W W ! ! ! ! ~ IXIXIXIXIX~ ~ ~ <.1.1.<.<.",
"<.<.<.IXIXW IXIXIXIXIX<.~ 1.<.IXIXIXIXIX<.<.<.IXR W Q Q Q Q W ! <.<.<.1.~ IXIXIXIX! W W ! ! ~ ! ~ ! ~ IXIXIX<.IXIX~ <.  <.<.<.<.",
"IXIXIXIXIXIXIXIX<.IXIX<.~ <.<.IXIXIXIXIX<.<.IXIXQ IXIXIXIXIXQ ! ~ ~ <.<.~ IXIX<.! ! W ! ~ ~ <.! <.! ~ IXIXIX<.IXIX~ <.1.<.<.<.IX",
"IXIXIX<.IXIXIXIX<.IXIXIXIX<.IXIXIXIXIX<.IXIXIXW IXIXIXIXIX! IX! ! ~ <.<.~ IXIX<.IX! W ! ~ <.IXIXIX! ~ IX<.IX<.IXIX~ <.<.IXIXIXIX",
"W IXIXIX<.IXIX<.IX<.<.IXIXIXIXIXIX<.<.IXIXIXW E IXIXIXW ! ! ~ ! ~ ~ ~ <.~ IXIX<.IX! IX! ~ IXIXIX<.~ <.<.IXIX<.IX<.~ <.IXIXE E W ",
"W W Q IXIX<.<.<.IXIXIXIX<.+ + <.<.<.IXIXIXW E W W W W Q ~ <.IX~ <.~ ~ ~ ! ~ <.<.IX! IX~ ~ IXIXIXIXIX<.IXIX<.<.<.~ ! IXIXE E W W ",
"Q Q W ! IXIXIXIXIXIXIXIX<.  + Q Q ~ IXIXIXW E IXIXW ! ! <.IXIX<.~ ~ ! Q W Q <.IXIXIXIX~ IX<.<.<.IXIXIX<.<.<.1.  ~ Q W W E E W W ",
"Q ! ! ! IXIXIXIXIXIXIXIXIX  ! Q ! ! <.IXIXW E IXIXW ! ~ <.IX<.~ ~ ~ ~ ~ ! ! ! IXIXIXIX~ IXIXIXIXIXIXIX+ 1.  <.<.Q W E E IXIXIXQ ",
"<.<.! ~ ~ IXIXIXIXIXIX<.  <.W IX<.~ <.IXIXW E W W ! ~ ~ IXIX! ~ ~ ~ ~ ! ! ~ ! ! ~ IXIXIXIXIXIXIXIXIX+     + <.IXW E E IXIXIXIXIX",
"IXIXIX~ ~ IX<.IXIXIX<.~ W W W <.IX~ ~ IXIXW W IX<.<.IXIXIXIX! ~ ~ ~ <.<.IX! ! ~ ~ ~ IXIXIXIXIXIXIX<.+   + 1.IXIXE E IXIXIX<.IX<.",
"IXIXIX! ! <.IXIXIX<.~ ! ! Q <.<.<.~ <.IXIXIXW IX<.IXW W W ! ~ ~ ~ ! ! IXIX! IX! ~ ~ ~ IX<.IXIXIX<.<.+ 1.+ <.IXE W E E E E W <.<.",
"IXIXIXQ Q <.IXIX<.<.~ IXIX! IXIXIXIX<.IXIXIXW IXIXIXIXIXIX! ~ IXIX~ ! IXIX! IX! ! ~ ~ IX<.<.<.<.Q Q Q <.<.IXIXW E Q Q Q E E W IX",
"<.IXIXW Q IXIX<.<.<.<.<.IX~ IXIXIX<.1.<.IXIXIXIXIXIXIXIXIX! ~ <.IXIX~ <.IX! IX! ! ~ ~ IXIX<.<.Q Q Q <.<.IXIXIXW Q IXIXIXQ W W IX",
"IXIXIXQ Q IX<.IX<.<.<.IXIX~ ~ ~ ~ ~ 1.1.<.IXIXIXIXIXIXIXQ ! ~ IXIXIX~ <.<.! <.! ! ~ ~ IX<.~ <.Q ! IXIXIXIXIXIXW IXIXIXIXIXIXW Q ",
"IXIXIX! ! IXIXIXIX<.IXIXIXIXIXIXIX! ~ ~ IXIXIXIXQ W W ! ~ ! IXIXIXIX~ <.IXIXIX! ! ~ ~ IX<.<.<.! IXIXIXIXIXIXIXW IXIXIXIXIXIXQ Q ",
"IXIXIX~ ~ IX<.IX<.<.IXIXIXIXQ Q ! IX~ <.IXIXIXQ W Q ! ~ ! IXIXIXIXIX<.IXIXIXIX! ! ~ ~ IX<.+ <.! IXIXIXIX<.IXIXW IXIXIXIXIXIX! ! ",
"<.IXIX! ! IXIXIX<.IXIXIXIXQ Q Q Q ! IX<.IXIXIXW Q ~ 1.~ ! ~ IXIX<.IXIXIXIXIXIX! ! ~ ~ IX<.1.<.~ IXIXIXIXIXIXIXW IXIXIX<.IX~ ~ ~ ",
"IXIXIXW Q IXIXIX<.IXIXIXQ Q ! ! IX~ IX<.IXIXIX! ~ <.<.<.~ ~ IXIX1.<.IXIXIXIX<.! ~ ~ ~ IX<.+ <.~ <.IXIXIXIXIXIXQ IXIXIX<.IX~ ~ ~ ",
"IXIXIXQ ~ IXIXIX<.IXIXIXIX! ~ ~ IX~ IX<.IXIX<.~ 1.<.IX<.~ ~ IX<.1.<.IXIXIXIX<.! ~ <.IXIX<.<.<.~ <.<.IX<.<.IXIX! IXIXIXIX<.<.! ! ",
"<.IXIX~ ~ IXIXIX<.IXIXIXIX~ ~ ~ IX~ <.<.IXIXIX~ 1.IXIX<.~ ~ <.1.<.<.<.IXIX<.<.! ~ <.IXIX<.<.<.~ <.<.<.<.<.<.IX~ <.IXIXIXIX<.Q Q ",
"<.IXIX~ IXIXIX<.<.IXIXIXIX~ ~ ~ <.~ 1.<.<.IXIXQ + <.<.1.~ ~ 1.1.IX<.<.IX<.<.IXIX~ IXIXIXIXIXIX~ <.<.IXIXIX<.<.~ + <.IXIXIXIXW W ",
"<.<.IXIXIX<.<.<.<.IXIXIXIXIX~ <.<.~ 1.1.<.<.IX!   IX<.1.~ ~ 1.<.<.1.<.<.IXIX<.IX~ <.IXIXIXIXIX~ <.IXIXIXIXIX<.! <.+ <.<.<.<.W W ",
"<.<.IX<.<.<.<.<.<.<.IXIXIX<.~ IXIX<.<.<.1.<.<.~ + <.<.IXIX~ + 1.1.<.<.IXIXIX<.IX<.~ <.IXIXIXIX~ IXIXIXIXIXIXIX<.<.1.+       Q Q ",
"<.<.<.IXIXIXIX<.IX<.<.IXIXIXIXIXIXIXIX<.<.<.<.~ 1.+ + IX<.~   1.1.<.IXIXIXIX<.<.<.~ <.IXIX<.<.~ ~ Q Q IXIXIXIXIXIX<.1.+     ! ~ ",
"<.<.IXIXW W IXIXIXIXIXIXIXIXIXIXIXIXIXIXIXIX<.~ 1.1.+ + + ~   1.<.IXIXIXIX<.<.IX<.<.<.<.<.IX~ Q Q W W Q Q IXIXIXIXIX<.1.+   ~ ~ ",
"<.<.IXW Q Q ! IXIXIXIXIXIXIXW W ! ! IXIXIXIX<.~ <.1.1.1.1.~ + <.IXIXIX<.<.<.<.<.<.1.<.<.IXIXIXQ W Q ! <.! IXIXIXIXIXIX<.1.+ ~ ~ ",
"<.<.IXQ IXIX! <.<.IXIXIXIXW W W ! ! <.IXIX<.1.~ <.<.<.<.<.~ <.<.<.<.IXIXIX<.<.<.1.+ <.<.IXIXIXW W ! ~   ~ IXIXIXIXIXIXIX<.<.~ ~ ",
"<.<.IX! IXIX! IXIXIXIXW W W Q Q ! ~ <.<.<.<.+ ~ <.! ! ! ! Q IXIX<.<.IXIXIXIXIXIX<.<.<.IXIXIXIX! IX~ <.  <.<.IXIXIX<.IX<.IX<.~   ",
"<.<.IX! IX<.! IXIXIXIXQ IXW <.<.! ~ <.IX<.<.  ~ ! W W Q Q W IXIXIX<.<.IXIXIXIXIXIX<.IXIXIXW IX! IX~     <.IXIXIXIX<.<.IXIXIX~   ",
"<.<.<.~ IXIXIXIXIXIXIX! <.IX<.<.<.~ IXIXIX<.1.! W R E W Q W IXIXIXW ~ IXIXIXIXIXIX<.IXIXW W IX~ IX<.  <.<.~ Q IXIXIXIXIXIXIX~   ",
"1.<.<.~ IXIXIXIXIXIXIX<.IX<.<.IXIXIX~ IXIX<.<.Q R E E W W W IXIXIXQ W ~ IXIXIXIXIXIXIXW W W IX~ IX<.<.~ ~ Q W E IXIXIXIXIXIX<.<.",
"<.1.<.~ IXIXIX<.IXIXIX<.<.<.IXIXIXIX~ IXIX<.<.W E W W Q W W W IXIXIXQ Q IXIXIXIXIXIXW W W W W W <.~ ~ Q Q W E Q IXIXIXIXIXIXIX~ ",
"<.1.<.~ <.<.<.<.IXIXIXIX<.IXIXIXIX~ IXIXIX<.W W Q ! W ! Q W W W IXIXIXQ ~ IXIXIXIXIXW W Q Q Q Q W IXIXE E E Q ~ <.<.IXIXIXIXIX~ ",
"1.+ 1.~ 1.<.<.<.<.IXIXIXIX<.<.1.  ~ <.IXIX<.IXW ! Q Q ~ ! Q Q Q IXIXIXQ ~ <.<.IXIXW W Q Q 1.<.<.<.IXIXQ ~ <.Q ~ <.IXIXIXIXIXIX~ ",
"+   + ~ 1.+ 1.1.<.<.<.<.<.IXIX1.1.~ <.<.~ W W W W Q ~ Q ! ! ~ ~ Q W IXQ ~ 1.<.<.IXW Q IX! <.<.<.IXIXIXQ ~ IXQ ~ IXIXIXIX<.IX<.<.",
"1.    + + 1.<.<.<.IXIXIXIX<.<.<.<.~ ~ ~ W ! ! ~ Q ~ Q ! ~ ~ ~ ~ ~ Q Q Q Q ~ 1.<.<.! IXIX! <.~ Q Q ~ ~ Q IXIXIX~ IXIX! Q ~ <.<.~ ",
"<.    ~ 1.<.<.IXIXIXIXIXIXIXIXIX<.~ ~ W ! ! ~ ~ ~ ~ ! ~ ~ 1.<.<.IXIX! ! Q Q ~ ~ <.~ IXIX~ IXQ ! ! ~ ~ Q IXIXIX~ IX! Q Q Q ~ <.~ ",
"+   + 1.<.IXIXIXIXIXW W W W W IXIX<.~ Q ! ~ + ~ ~ + ~ ~ ~ <.IXIXIX<.~ ~ ~ ~ ! ~ 1.~ <.IX~ IXIX~ 1.~ ~ Q IX<.<.~ IXIXIX! ! ~ <.<.",
"1.+ 1.1.<.IXIXIXIXQ W ! ! ! ! W IX<.~ ! ~ + + ~ ~ + ~ ~ ~ IXIXIXIXIX~ ~ ~ ~ ! ~ <.~ 1.<.~ IXIX~ 1.~ ~ <.<.IX<.~ IX<.IX~ ~ ~ <.<.",
"1.1.1.1.IXIXIXIXIXW <.IXIXIX! ! IX<.~ ! ~ 1.1.1.~ 1.1.<.~ <.IXIXIXIX~ ~ ~ 1.~ ~ <.<.<.1.~ IXIX~ 1.~ ~ <.<.IX<.~ <.<.<.~ ~ ~ <.<.",
"<.1.1.<.IXIXIXIX<.! IXIXIXIXIX! IX<.~ IXIXIXIXIX~ IXIXIX~ IXIXIXIXIX~ ~ 1.<.~ ~ <.<.<.1.~ <.<.~ <.! ! ~ <.<.<.~ <.IX<.<.Q ! ! <.",
"<.1.1.<.IXIXIX! ! ~ ! ! IXIXIX~ IXIX~ IXIXIXIX<.~ <.IXIX~ IX<.IXIX1.1.~ <.IX~ ~ 1.IX1.<.~ <.<.<.<.Q IXQ ~ <.<.~ IX<.<.Q R W W ! ",
"<.1.1.<.! W W W IXIXIXIXIXIXIX~ IXIX~ <.IXIX<.<.~ ~ ~ ~ ~ IXIXIX<.<.1.~ IX<.~ ~ 1.<.<.<.~ IXIX<.IX! IXIX~ ~ <.~ <.<.Q R W Q Q IX",
"~ <.<.IXW W Q Q W IXIXIXIX~ ~ ~ ~ ~ ~ <.<.IX<.~ ~ ~ ~ ~ ~ ~ ~ ~ ~ ~ ~ ~ ~ <.~ ~ 1.IX<.IXIXIXIXIX<.~ ~ ~ ~ ~ ~ ~ ~ ~ W R Q IX~ ~ ",
"~ ~ ~ IXW <.IXIX! IX<.IX~ ~ ~ ~ ~ ~ ~ ~ ~ ~ ~ ! Q IXQ Q Q Q ! ! ! ! ~ ~ ~ ~ ~ ~ IXIXIXIXIXIXIX~ ~ ~ ! ! ! ! Q Q Q W R Q ~ IXIX~ ",
"~ ~ ~ ~ Q IXIX<.~ ~ ~ ~ ~ ! Q W W Q Q ! ~ ~ ~ ~ ! Q W E R E W W Q Q Q Q ! ! ! ~ ~ ~ ~ ~ ~ ~ ~ ~ ~ ~ ! Q W W W W W W Q ~ ~ ~ ~ ~ ",
"%.-.>.~ ~ ~ ~ ~ ~ ~ ~ ~ ~ ~ ~ ~ ~ ~ >.-.%.%.*.>.~ ~ ~ ~ ~ ~ ~ ~ ~ ~ ~ ~ ~ ~ ~ ~ ~ ~ ~ >.-.*.*.-.>.~ ~ ~ ~ ~ ~ ~ ~ ~ ~ ~ ~ >.-.%."
};
